<?xml version="1.0" encoding="UTF-8"?> <svg xmlns="http://www.w3.org/2000/svg" xmlns:xlink="http://www.w3.org/1999/xlink" width="61" height="60" viewBox="0 0 61 60"><defs><path id="a" d="M363.847 543.423c0 14.21-11.52 25.73-25.73 25.73s-25.73-11.52-25.73-25.73c0-14.211 11.52-25.73 25.73-25.73s25.73 11.519 25.73 25.73z"></path><path id="b" d="M356.262 543.423c0 10.02-8.124 18.146-18.146 18.146-10.021 0-18.145-8.125-18.145-18.146s8.124-18.146 18.145-18.146c10.022 0 18.146 8.125 18.146 18.146z"></path><path id="c" d="M348.72 543.423c0 5.856-4.748 10.604-10.604 10.604-5.856 0-10.604-4.748-10.604-10.604 0-5.856 4.748-10.604 10.604-10.604 5.856 0 10.604 4.748 10.604 10.604z"></path><path id="d" d="M340.584 543.423a2.469 2.469 0 0 1-4.935 0 2.468 2.468 0 0 1 4.935 0z"></path><path id="e" d="M356.269 561.575l7.578 7.226"></path><path id="f" d="M319.259 561.575l-7.578 7.226"></path><path id="g" d="M350.806 517.34l1.762 8.812-14.451 14.803 3.27-.03a1.382 1.382 0 0 0 2.152.186l12.554-13.197 7.402 1.762z"></path><path id="h" d="M338.116 543.423l25.14-25.275"></path><path id="i" d="M354.003 527.4l-1.586-7.045 7.667-8.288 1.32 7.402"></path><path id="j" d="M354.003 527.4l7.045 1.586 8.288-7.667-7.402-1.32"></path></defs><use fill="#fff" fill-opacity="0" stroke="#1a1a1a" stroke-linecap="round" stroke-linejoin="round" stroke-miterlimit="50" stroke-width="2.12" xlink:href="#a" transform="translate(-310 -511)"></use><use fill="#fff" fill-opacity="0" stroke="#f53a66" stroke-linecap="round" stroke-linejoin="round" stroke-miterlimit="50" stroke-width="2.12" xlink:href="#b" transform="translate(-310 -511)"></use><use fill="#fff" fill-opacity="0" stroke="#1a1a1a" stroke-linecap="round" stroke-linejoin="round" stroke-miterlimit="50" stroke-width="2.12" xlink:href="#c" transform="translate(-310 -511)"></use><use fill="#fff" fill-opacity="0" stroke="#f53a66" stroke-linecap="round" stroke-linejoin="round" stroke-miterlimit="50" stroke-width="2.12" xlink:href="#d" transform="translate(-310 -511)"></use><use fill="#fff" fill-opacity="0" stroke="#1a1a1a" stroke-linecap="round" stroke-linejoin="round" stroke-miterlimit="50" stroke-width="2.12" xlink:href="#e" transform="translate(-310 -511)"></use><use fill="#fff" fill-opacity="0" stroke="#1a1a1a" stroke-linecap="round" stroke-linejoin="round" stroke-miterlimit="50" stroke-width="2.12" xlink:href="#f" transform="translate(-310 -511)"></use><use fill="#fff" xlink:href="#g" transform="translate(-310 -511)"></use><use fill="#fff" fill-opacity="0" stroke="#1a1a1a" stroke-linecap="round" stroke-linejoin="round" stroke-miterlimit="50" stroke-width="2.12" xlink:href="#h" transform="translate(-310 -511)"></use><use fill="#fff" fill-opacity="0" stroke="#1a1a1a" stroke-linecap="round" stroke-linejoin="round" stroke-miterlimit="50" stroke-width="2.12" xlink:href="#i" transform="translate(-310 -511)"></use><use fill="#fff" fill-opacity="0" stroke="#1a1a1a" stroke-linecap="round" stroke-linejoin="round" stroke-miterlimit="50" stroke-width="2.12" xlink:href="#j" transform="translate(-310 -511)"></use></svg> 