<?xml version="1.0" encoding="UTF-8"?> <svg xmlns="http://www.w3.org/2000/svg" xmlns:xlink="http://www.w3.org/1999/xlink" width="54" height="67" viewBox="0 0 54 67"><defs><path id="a" d="M616.258 544.664l-8.094 20.803 11.414-2.075 6.422 9.015 8.094-20.804"></path><path id="b" d="M651.269 544.664l8.094 20.803-11.413-2.075-6.422 9.015-8.095-20.804"></path><path id="c" d="M655.988 530.503c0 11.979-9.71 21.689-21.689 21.689-11.978 0-21.689-9.71-21.689-21.69 0-11.978 9.711-21.688 21.69-21.688 11.978 0 21.688 9.71 21.688 21.689z"></path><path id="d" d="M650.621 530.503c0 9.015-7.308 16.322-16.322 16.322s-16.322-7.307-16.322-16.322c0-9.014 7.308-16.321 16.322-16.321s16.322 7.307 16.322 16.32z"></path></defs><use fill="#fff" fill-opacity="0" stroke="#f53a66" stroke-linecap="round" stroke-linejoin="round" stroke-miterlimit="50" stroke-width="2.12" xlink:href="#a" transform="translate(-607 -507)"></use><use fill="#fff" fill-opacity="0" stroke="#f53a66" stroke-linecap="round" stroke-linejoin="round" stroke-miterlimit="50" stroke-width="2.12" xlink:href="#b" transform="translate(-607 -507)"></use><use fill="#fff" xlink:href="#c" transform="translate(-607 -507)"></use><use fill="#fff" fill-opacity="0" stroke="#1a1a1a" stroke-linecap="round" stroke-linejoin="round" stroke-miterlimit="50" stroke-width="2.12" xlink:href="#c" transform="translate(-607 -507)"></use><use fill="#fff" xlink:href="#d" transform="translate(-607 -507)"></use><use fill="#fff" fill-opacity="0" stroke="#1a1a1a" stroke-linecap="round" stroke-linejoin="round" stroke-miterlimit="50" stroke-width="1.96" xlink:href="#d" transform="translate(-607 -507)"></use></svg> 