<?xml version="1.0" encoding="UTF-8"?> <svg xmlns="http://www.w3.org/2000/svg" xmlns:xlink="http://www.w3.org/1999/xlink" width="69" height="61" viewBox="0 0 69 61"><defs><path id="a" d="M955.296 569.304v-3.965h7.095s3.058.22 4.069-2.713c1.044-3.025-.521-4.277-.521-4.277s1.147-.418 1.147-1.461c0-1.044-.33-1.31-.33-1.31s1.57.086 1.612-1.398c.036-1.272-1.177-1.883-2.116-1.778l.104-3.548h3.709s1.696.068 1.716-2.476c.054-6.47 1.878-34.461-21.911-34.461-23.79 0-22.328 23.372-22.12 25.042"></path><path id="b" d="M921.705 569.304v-3.965h-7.095s-3.058.22-4.069-2.713c-1.044-3.025.521-4.277.521-4.277s-1.147-.418-1.147-1.461c0-1.044.33-1.31.33-1.31s-1.57.086-1.612-1.398c-.036-1.272 1.177-1.883 2.117-1.778l-.105-3.548h-3.709s-1.696.068-1.716-2.476c-.053-6.47-1.878-34.461 21.911-34.461 23.79 0 22.33 23.372 22.12 25.042"></path><path id="c" d="M948.47 543.068h-17.103c-4.92 0-8.946-4.025-8.946-8.946v-3.67c0-4.92 4.026-8.946 8.946-8.946h17.104c4.92 0 8.946 4.025 8.946 8.946v3.67c0 4.921-4.026 8.946-8.946 8.946z"></path><path id="d" d="M941.69 530.624l-.562 1.05-6.285 11.751h3.573l-1.787 9.824 7.443-13.099-4.764.298z"></path></defs><use fill="#fff" fill-opacity="0" stroke="#1a1a1a" stroke-linecap="round" stroke-linejoin="round" stroke-miterlimit="50" stroke-width="2.12" xlink:href="#a" transform="translate(-904 -510)"></use><use fill="#fff" fill-opacity="0" stroke="#1a1a1a" stroke-linecap="round" stroke-linejoin="round" stroke-miterlimit="50" stroke-width="2.12" xlink:href="#b" transform="translate(-904 -510)"></use><use fill="#fff" xlink:href="#c" transform="translate(-904 -510)"></use><use fill="#f53a66" xlink:href="#d" transform="translate(-904 -510)"></use></svg> 