<?xml version="1.0" encoding="UTF-8"?> <svg xmlns="http://www.w3.org/2000/svg" xmlns:xlink="http://www.w3.org/1999/xlink" width="65" height="61" viewBox="0 0 65 61"><defs><path id="a" d="M641.164 320.643h3.708s1.696.068 1.718-2.476c.053-6.468 1.878-34.46-21.912-34.46-23.789 0-22.328 23.372-22.119 25.041.208 1.67.417 7.095 3.547 10.226v19.615s-.209 2.505 2.087 2.505h21.911v-3.965h7.095s3.058.22 4.07-2.713c1.042-3.026-.522-4.278-.522-4.278s1.147-.417 1.147-1.46c0-1.044-.329-1.309-.329-1.309s1.57.085 1.612-1.399c.036-1.272-1.178-1.884-2.117-1.779l.104-3.548z"></path><path id="b" d="M639.91 313.015a2.49 2.49 0 1 1-4.98 0 2.49 2.49 0 0 1 4.98 0z"></path><path id="c" d="M665.058 299.201c0 6.31-2.36 11.425-5.27 11.425-2.91 0-5.268-5.115-5.268-11.425 0-6.31 2.358-11.425 5.268-11.425 2.91 0 5.27 5.115 5.27 11.425z"></path><path id="d" d="M623.304 293.148l36.484-5.373"></path><path id="e" d="M624.265 304.853l34.532 5.67"></path><path id="f" d="M617.02 291.99c.99.665 2.612.665 3.603 0 .99-.668 1.99-.253 2.22.918.229 1.172 1.376 2.318 2.548 2.548 1.17.23 1.585 1.228.919 2.22-.666.99-.666 2.612 0 3.603.666.991.252 1.99-.92 2.22-1.172.23-2.319 1.375-2.548 2.547-.23 1.172-1.229 1.586-2.22.92-.99-.666-2.612-.666-3.603 0-.99.666-1.99.252-2.22-.92-.229-1.172-1.376-2.318-2.548-2.548-1.17-.23-1.585-1.228-.919-2.219.666-.99.666-2.613 0-3.603-.666-.992-.252-1.99.92-2.22 1.172-.23 2.319-1.376 2.548-2.548.23-1.17 1.229-1.586 2.22-.919z"></path><path id="g" d="M622.893 299.478a4.072 4.072 0 1 1-8.144 0 4.072 4.072 0 0 1 8.144 0z"></path></defs><use fill="#fff" fill-opacity="0" stroke="#1a1a1a" stroke-linecap="round" stroke-linejoin="round" stroke-miterlimit="50" stroke-width="2.12" xlink:href="#a" transform="translate(-601 -282)"></use><use fill="#fff" fill-opacity="0" stroke="#1a1a1a" stroke-linecap="round" stroke-miterlimit="50" stroke-width="2.12" xlink:href="#b" transform="translate(-601 -282)"></use><use fill="#fff" fill-opacity="0" stroke="#1a1a1a" stroke-linecap="round" stroke-miterlimit="50" stroke-width="2.12" xlink:href="#c" transform="translate(-601 -282)"></use><use fill="#fff" fill-opacity="0" stroke="#1a1a1a" stroke-linecap="round" stroke-miterlimit="50" stroke-width="2.12" xlink:href="#d" transform="translate(-601 -282)"></use><use fill="#fff" fill-opacity="0" stroke="#1a1a1a" stroke-linecap="round" stroke-miterlimit="50" stroke-width="2.12" xlink:href="#e" transform="translate(-601 -282)"></use><use fill="#fff" fill-opacity="0" stroke="#1a1a1a" stroke-linecap="round" stroke-miterlimit="50" stroke-width="2.12" xlink:href="#f" transform="translate(-601 -282)"></use><use fill="#f53a66" xlink:href="#g" transform="translate(-601 -282)"></use></svg> 