<?xml version="1.0" encoding="UTF-8"?> <svg xmlns="http://www.w3.org/2000/svg" xmlns:xlink="http://www.w3.org/1999/xlink" width="53" height="53" viewBox="0 0 53 53"><defs><path id="a" d="M922.955 327.652l7.426 7.426s16.523-11.51 21.907-16.894c5.384-5.384 12.066-14.11 11.14-22.092 0 0-.744-2.6-2.972-2.043-3.673.919-13.552 2.6-22.092 13.182s-15.409 20.42-15.409 20.42z"></path><path id="b" d="M922.955 334.892l16.151-16.337"></path><path id="c" d="M934.28 332.293l1.856 10.582 9.468-10.025 2.042-10.582"></path><path id="d" d="M952.845 296.277s.557 7.055 8.726 9.282"></path><path id="e" d="M936.137 310.015l-12.253 2.414-9.097 9.282 11.325 1.671"></path><path id="f" d="M951.36 311.408a4.919 4.919 0 0 1-4.92 4.919 4.92 4.92 0 1 1 4.92-4.919z"></path><path id="g" d="M913.487 344.917s1.485-16.337 11.324-11.881z"></path><path id="h" d="M913.894 344.97s16.263-2.147 11.412-11.797z"></path></defs><use fill="#fff" fill-opacity="0" stroke="#1a1a1a" stroke-linecap="round" stroke-miterlimit="50" stroke-width="2.12" xlink:href="#a" transform="translate(-912 -292)"></use><use fill="#fff" fill-opacity="0" stroke="#1a1a1a" stroke-linecap="round" stroke-miterlimit="50" stroke-width="2.12" xlink:href="#b" transform="translate(-912 -292)"></use><use fill="#fff" fill-opacity="0" stroke="#1a1a1a" stroke-linecap="round" stroke-miterlimit="50" stroke-width="2.12" xlink:href="#c" transform="translate(-912 -292)"></use><use fill="#fff" fill-opacity="0" stroke="#1a1a1a" stroke-linecap="round" stroke-miterlimit="50" stroke-width="2.12" xlink:href="#d" transform="translate(-912 -292)"></use><use fill="#fff" fill-opacity="0" stroke="#1a1a1a" stroke-linecap="round" stroke-miterlimit="50" stroke-width="2.12" xlink:href="#e" transform="translate(-912 -292)"></use><use fill="#fff" fill-opacity="0" stroke="#1a1a1a" stroke-linecap="round" stroke-miterlimit="50" stroke-width="2.12" xlink:href="#f" transform="translate(-912 -292)"></use><use fill="#f53a66" xlink:href="#g" transform="translate(-912 -292)"></use><use fill="#f53a66" xlink:href="#h" transform="translate(-912 -292)"></use></svg> 